<svg width="16" height="16" viewBox="-2 -4 36 36" fill="none" xmlns="http://www.w3.org/2000/svg">
<path d="M5.64232 21.2746C5.64232 21.9014 5.98921 22.254 6.60591 22.254H13.9749C14.5916 22.254 14.9385 21.9014 14.9385 21.2746V7.65434H20.5811V17.6854C20.5811 23.4454 15.9561 27.8339 10.2905 27.8339C4.62544 27.8339 0 23.4454 0 17.6854V7.65434H5.64232V21.2746Z" fill="#D4A843"/><path d="M17.7095 0C23.3746 4.48475e-06 28 4.38851 28 10.1485V20.1799H22.3577V6.55935C22.3577 5.93257 22.0108 5.57998 21.3941 5.57998H14.0251C13.4084 5.57998 13.0615 5.93257 13.0615 6.55935V20.1799H7.41893V10.1485C7.41893 4.38851 12.0439 0 17.7095 0Z" fill="#D4A843"/>
<circle cx="26" cy="24" r="6" fill="#888888" stroke="#1e1e1e" stroke-width="2"/>
</svg>
