<svg xmlns="http://www.w3.org/2000/svg" viewBox="0 0 900 550" width="900" height="550">
  <style>
    @keyframes fadeSection { 0%,15%{opacity:0} 25%,100%{opacity:1} }
    @keyframes fadeClusters { 0%,40%{opacity:0} 50%,100%{opacity:1} }
    @keyframes fadeRuns { 0%,55%{opacity:0} 65%,100%{opacity:1} }
    .mono { font-family: 'Cascadia Code','Fira Code','SF Mono',Consolas,monospace }
    .sans { font-family: -apple-system,'Segoe UI',system-ui,sans-serif }
  </style>

  <!-- Window -->
  <rect width="900" height="550" rx="8" fill="#1e1e1e"/>
  <rect width="900" height="34" rx="8" fill="#323233"/>
  <rect x="0" y="26" width="900" height="8" fill="#323233"/>
  <circle cx="18" cy="17" r="6" fill="#ff5f57"/>
  <circle cx="38" cy="17" r="6" fill="#ffbd2e"/>
  <circle cx="58" cy="17" r="6" fill="#28c840"/>
  <text x="450" y="22" text-anchor="middle" fill="#999" font-size="12" class="sans">ml-pipeline - Visual Studio Code</text>

  <!-- Activity bar -->
  <rect x="0" y="34" width="48" height="516" fill="#2b2b2b"/>
  <!-- Flyte icon active -->
  <rect x="0" y="34" width="2" height="40" fill="#fff"/>
  <g transform="translate(12,40) scale(0.5)">
    <path d="M10.7325 20.4388C11.6982 18.1438 12.1898 15.7827 12.6324 13.4131C13.387 9.37307 13.8972 5.30623 13.7258 1.18364C13.6932 0.40028 13.9138 0.109059 14.7575 0.188746C17.0421 0.404513 19.3074 0.665615 21.3612 1.79067C21.9048 2.0885 22.382 1.9286 22.9017 1.78205C26.8327 0.67369 30.8187 -0.0779745 34.9253 0.00645783C37.6237 0.0619366 40.2407 0.49755 42.7297 1.6147C43.5435 1.97993 43.845 2.49922 43.77 3.36313C43.5683 5.68772 42.639 7.77122 41.6739 9.84286C41.4101 10.4092 41.0266 10.0835 40.7011 9.87791C37.4258 7.80932 33.9086 6.24425 30.286 4.90798C27.7148 3.95952 25.1144 3.09629 22.3025 2.66542C23.1702 3.52404 24.0071 4.41672 24.911 5.23541C28.913 8.86013 33.0836 12.2613 37.9038 14.771C38.4356 15.048 38.5646 15.3318 38.1997 15.85C36.8598 17.7528 35.489 19.6321 33.4785 20.8918C32.8806 21.2665 32.7376 21.7994 32.5894 22.3911C31.4367 26.9944 29.762 31.3745 27.0155 35.2878C25.8812 36.9384 24.4777 38.3869 22.8637 39.5728C22.1292 40.1043 21.4749 40.1669 20.7303 39.6072C18.9337 38.2569 17.5829 36.5179 16.3305 34.6852C15.9864 34.1815 16.2307 33.9058 16.6734 33.678C20.2832 31.8213 23.4905 29.3836 26.5822 26.7839C28.484 25.2109 30.2824 23.5168 31.966 21.7121C31.611 21.3738 31.3066 21.6228 31.0411 21.6936C25.0841 23.2818 19.3462 25.4144 14.0708 28.6582C13.3497 29.1016 12.9663 29.0464 12.6148 28.2355C11.7169 26.1637 10.8845 24.0742 10.7443 21.7951C10.6984 21.0484 10.2419 20.6461 9.78687 20.2039C6.53928 17.048 3.71473 13.5729 1.74933 9.46218C0.789341 7.45433 0.08806 5.37105 0.00218354 3.10907C-0.0318759 2.21194 0.331824 1.71144 1.14182 1.41953C3.02246 0.738513 4.98966 0.32577 6.98543 0.193467C7.7856 0.140088 7.98221 0.421906 7.96127 1.14386C7.81334 6.24361 8.59293 11.2413 9.68012 16.2002C9.99177 17.6216 10.3796 19.0264 10.7325 20.4388Z" fill="#fff"/>
  </g>

  <!-- Sidebar panel -->
  <rect x="48" y="34" width="252" height="516" fill="#252526"/>
  <line x1="300" y1="34" x2="300" y2="550" stroke="#1e1e1e" stroke-width="1"/>

  <!-- FLYTE header -->
  <text x="60" y="54" fill="#bbb" font-size="11" class="sans" font-weight="600" letter-spacing="0.5">FLYTE</text>
  <text x="280" y="54" fill="#888" font-size="12" class="mono">...</text>

  <!-- ENVIRONMENTS -->
  <text x="58" y="76" fill="#ccc" font-size="10" class="sans" font-weight="600">▼ ENVIRONMENTS</text>
  <g style="animation: fadeSection 6s ease-in-out infinite">
    <text x="72" y="94" fill="#ccc" font-size="12" class="sans">{ } data-processing</text>
    <text x="210" y="94" fill="#666" font-size="10" class="mono">data_env</text>
    <text x="72" y="112" fill="#ccc" font-size="12" class="sans">{ } gpu-training</text>
    <text x="210" y="112" fill="#666" font-size="10" class="mono">train_env</text>
    <text x="72" y="130" fill="#ccc" font-size="12" class="sans">{ } evaluation</text>
    <text x="210" y="130" fill="#666" font-size="10" class="mono">eval_env</text>
    <text x="72" y="148" fill="#ccc" font-size="12" class="sans">{ } distributed-training</text>
  </g>

  <!-- TASKS -->
  <text x="58" y="172" fill="#ccc" font-size="10" class="sans" font-weight="600">▼ TASKS</text>
  <g style="animation: fadeSection 6s ease-in-out infinite">
    <text x="72" y="190" fill="#ccc" font-size="12" class="sans">ƒ fetch_dataset</text>
    <text x="178" y="190" fill="#666" font-size="10" class="mono">async data_env.task</text>
    <text x="72" y="208" fill="#ccc" font-size="12" class="sans">ƒ preprocess_shard</text>
    <text x="190" y="208" fill="#666" font-size="10" class="mono">async data_env.task</text>
    <text x="72" y="226" fill="#ccc" font-size="12" class="sans">ƒ split_into_shards</text>
    <text x="195" y="226" fill="#666" font-size="10" class="mono">async data_env.task</text>
    <text x="72" y="244" fill="#ccc" font-size="12" class="sans">ƒ merge_shards</text>
    <text x="172" y="244" fill="#666" font-size="10" class="mono">async data_env.task</text>
    <text x="72" y="262" fill="#ccc" font-size="12" class="sans">ƒ create_train_val_split</text>
    <text x="72" y="280" fill="#ccc" font-size="12" class="sans">ƒ train_model</text>
    <text x="156" y="280" fill="#666" font-size="10" class="mono">async train_env.task</text>
    <text x="72" y="298" fill="#ccc" font-size="12" class="sans">ƒ train_large_model</text>
    <text x="196" y="298" fill="#666" font-size="10" class="mono">async distributed_env.t...</text>
    <text x="72" y="316" fill="#ccc" font-size="12" class="sans">ƒ evaluate_model</text>
    <text x="180" y="316" fill="#666" font-size="10" class="mono">async eval_env.task</text>
    <text x="72" y="334" fill="#ccc" font-size="12" class="sans">ƒ compare_models</text>
    <text x="184" y="334" fill="#666" font-size="10" class="mono">async eval_env.task</text>
  </g>

  <!-- APPS -->
  <text x="58" y="358" fill="#ccc" font-size="10" class="sans" font-weight="600">▼ APPS</text>
  <g style="animation: fadeClusters 6s ease-in-out infinite">
    <text x="72" y="376" fill="#ccc" font-size="12" class="sans">▢ text-classifier</text>
    <text x="188" y="376" fill="#666" font-size="10" class="mono">inference_app</text>
    <text x="72" y="394" fill="#ccc" font-size="12" class="sans">▢ batch-classifier</text>
    <text x="195" y="394" fill="#666" font-size="10" class="mono">batch_app</text>
  </g>

  <!-- CLUSTERS -->
  <text x="58" y="420" fill="#ccc" font-size="10" class="sans" font-weight="600">▼ CLUSTERS</text>
  <g style="animation: fadeClusters 6s ease-in-out infinite">
    <text x="60" y="440" fill="#999" font-size="11" class="sans">No clusters configured.</text>
    <text x="60" y="456" fill="#999" font-size="11" class="sans">Use the buttons above to connect:</text>
    <!-- Union button -->
    <rect x="60" y="464" width="230" height="26" rx="4" fill="#0078d4"/>
    <text x="175" y="482" text-anchor="middle" fill="#fff" font-size="12" class="sans">☁ Union.ai</text>
    <!-- Self-Hosted button -->
    <rect x="60" y="496" width="230" height="26" rx="4" fill="#0078d4"/>
    <text x="175" y="514" text-anchor="middle" fill="#fff" font-size="12" class="sans">☰ Self-Hosted</text>
  </g>

  <!-- RUNS -->
  <text x="58" y="540" fill="#ccc" font-size="10" class="sans" font-weight="600" style="animation: fadeRuns 6s ease-in-out infinite">▼ RUNS</text>

  <!-- Editor area -->
  <rect x="300" y="34" width="600" height="516" fill="#1e1e1e"/>
  <text x="320" y="56" fill="#ccc" font-size="12" class="sans">pipeline.py</text>

  <!-- Code lines -->
  <text x="330" y="80" fill="#6a9955" font-size="12" class="mono">"""</text>
  <text x="330" y="96" fill="#6a9955" font-size="12" class="mono">Flyte V2 ML Pipeline - Comprehensive Example</text>
  <text x="330" y="112" fill="#6a9955" font-size="12" class="mono">"""</text>
  <text x="330" y="144" fill="#569cd6" font-size="12" class="mono">import</text>
  <text x="388" y="144" fill="#9cdcfe" font-size="12" class="mono">asyncio</text>
  <text x="330" y="160" fill="#569cd6" font-size="12" class="mono">from</text>
  <text x="370" y="160" fill="#9cdcfe" font-size="12" class="mono">datetime</text>
  <text x="442" y="160" fill="#569cd6" font-size="12" class="mono">import</text>
  <text x="500" y="160" fill="#9cdcfe" font-size="12" class="mono">timedelta</text>
  <text x="330" y="192" fill="#569cd6" font-size="12" class="mono">import</text>
  <text x="388" y="192" fill="#dcdcaa" font-size="12" class="mono">flyte</text>

  <text x="330" y="224" fill="#6a9955" font-size="12" class="mono"># CPU environment for data processing</text>
  <text x="330" y="240" fill="#9cdcfe" font-size="12" class="mono">data_env</text>
  <text x="400" y="240" fill="#d4d4d4" font-size="12" class="mono">= flyte.</text>
  <text x="465" y="240" fill="#4ec9b0" font-size="12" class="mono">TaskEnvironment</text>
  <text x="595" y="240" fill="#d4d4d4" font-size="12" class="mono">(</text>
  <text x="350" y="256" fill="#9cdcfe" font-size="12" class="mono">name</text>
  <text x="386" y="256" fill="#d4d4d4" font-size="12" class="mono">=</text>
  <text x="396" y="256" fill="#ce9178" font-size="12" class="mono">"data-processing"</text>
  <text x="544" y="256" fill="#d4d4d4" font-size="12" class="mono">,</text>
  <text x="350" y="272" fill="#9cdcfe" font-size="12" class="mono">image</text>
  <text x="393" y="272" fill="#d4d4d4" font-size="12" class="mono">=(</text>
  <text x="350" y="288" fill="#d4d4d4" font-size="12" class="mono">  flyte.</text>
  <text x="406" y="288" fill="#4ec9b0" font-size="12" class="mono">Image</text>
  <text x="442" y="288" fill="#d4d4d4" font-size="12" class="mono">.from_debian_base()</text>

  <!-- Status bar -->
  <rect x="0" y="530" width="900" height="20" fill="#007acc"/>
  <text x="15" y="544" fill="#fff" font-size="11" class="sans">Flyte</text>
  <text x="830" y="544" fill="#fff" font-size="11" class="sans">Python</text>
</svg>
